<svg preserveAspectRatio="none" width="100%" height="100%" overflow="visible" style="display: block;" viewBox="0 0 77.0012 20.0974" fill="none" xmlns="http://www.w3.org/2000/svg">
<g id="Group">
<path id="Vector" d="M15.8855 9.53775C15.8855 10.225 15.325 10.7855 14.6378 10.7855C13.9505 10.7855 13.39 10.225 13.39 9.53775C13.39 8.85049 13.9505 8.29 14.6378 8.29C15.325 8.29 15.8855 8.85049 15.8855 9.53775Z" fill="var(--fill-0, #1ECAD3)"/>
<g id="Group_2">
<path id="Vector_2" d="M5.4714 17.7887C5.4714 18.5427 5.24454 19.1232 4.79081 19.5102C4.33709 19.9039 3.6565 20.0974 2.74237 20.0974C0.914125 20.0974 0 19.3367 0 17.8087V2.48878C0 0.967459 0.914125 0.2068 2.74237 0.2068C3.63648 0.2068 4.31707 0.393628 4.77747 0.773958C5.23787 1.14761 5.4714 1.72144 5.4714 2.47543V8.12032H3.33622V2.32864C3.33622 2.08176 3.28951 1.9016 3.20277 1.78817C3.11603 1.67474 2.96257 1.62136 2.74237 1.62136C2.5422 1.62136 2.38873 1.66807 2.28865 1.76815C2.18856 1.86824 2.13518 2.05507 2.13518 2.32864V17.8554C2.13518 18.1156 2.18189 18.2958 2.2753 18.4159C2.36872 18.5293 2.52218 18.5827 2.74237 18.5827C2.96257 18.5827 3.11603 18.5293 3.20277 18.4226C3.28951 18.3158 3.33622 18.129 3.33622 17.8554V10.9961H5.4714V17.7954V17.7887Z" fill="var(--fill-0, #1ECAD3)"/>
<path id="Vector_3" d="M30.3181 17.642C30.3181 18.4026 30.0912 18.9564 29.6241 19.3034C29.1637 19.6504 28.4031 19.8238 27.3422 19.8238H24.84V0.1735H27.3422C28.3831 0.1735 29.1437 0.340311 29.6108 0.680606C30.0845 1.01423 30.3181 1.57471 30.3181 2.35539V8.24048C30.3181 8.72757 30.1513 9.12792 29.811 9.44152C29.4707 9.75513 28.9502 9.96865 28.2563 10.0821V10.1488C29.6308 10.2556 30.3181 10.8094 30.3181 11.7969V17.642ZM28.1896 8.62081V2.33537C28.1896 1.80825 27.936 1.54802 27.4289 1.54802H26.9885V9.39482H27.4289C27.6624 9.39482 27.8493 9.32809 27.9894 9.19464C28.1228 9.06119 28.1896 8.86769 28.1896 8.62081ZM28.1896 17.6019V11.6034C28.1896 11.0963 27.936 10.8427 27.4289 10.8427H26.9885V18.3826H27.4289C27.936 18.3826 28.1896 18.1224 28.1896 17.6086V17.6019Z" fill="var(--fill-0, #1ECAD3)"/>
<path id="Vector_4" d="M43.2817 19.8238H41.0265C40.9464 19.6837 40.8797 19.27 40.8196 18.5961C40.7996 18.3759 40.7796 18.0489 40.7529 17.6219V11.0629C40.7529 10.5691 40.3792 10.3222 39.6319 10.3222H39.5452V19.8238H37.41V0.0667H39.9055C40.9464 0.0667 41.7004 0.233511 42.1741 0.573806C42.6412 0.9141 42.8814 1.46791 42.8814 2.24859V7.50647C42.8814 8.10699 42.7213 8.56739 42.4143 8.87433C42.1074 9.18793 41.5736 9.40145 40.8129 9.51488V9.57493C41.5002 9.57493 42.0207 9.70838 42.361 9.98195C42.7079 10.2488 42.8747 10.6625 42.8747 11.223V17.6419C42.8747 18.6962 43.0082 19.4235 43.2684 19.8238H43.2817ZM40.7529 8.04027V2.22857C40.7529 1.70812 40.4993 1.44122 39.9922 1.44122H39.5519V8.8076H39.9922C40.4993 8.8076 40.7529 8.55405 40.7529 8.0336V8.04027Z" fill="var(--fill-0, #1ECAD3)"/>
<path id="Vector_5" d="M55.4212 19.8237H53.5463C53.5262 19.5968 53.5196 19.4433 53.5129 19.3566C53.5129 19.2698 53.4995 19.1898 53.4929 19.103C53.306 19.3699 53.0792 19.5701 52.819 19.7036C52.5654 19.8303 52.2852 19.8971 51.9849 19.8971C51.5045 19.8971 51.0841 19.7436 50.7238 19.4367C50.3635 19.1297 50.1833 18.7361 50.1833 18.2623V11.0894C50.1833 10.649 50.4636 10.2554 51.0174 9.90174C51.5378 9.60148 52.065 9.30122 52.5988 8.99428C53.1659 8.59394 53.4462 8.12019 53.4462 7.57305V1.94818C53.4462 1.78804 53.3728 1.66127 53.2327 1.56118C53.0925 1.46109 52.9324 1.40772 52.7389 1.40772C52.5454 1.40772 52.3919 1.44775 52.2451 1.53449C52.0983 1.61456 52.0316 1.75468 52.0316 1.94818V7.87331H50.17V2.10832C50.17 1.50113 50.3969 1.04073 50.8439 0.733799C51.291 0.426866 51.9249 0.2734 52.7389 0.2734C53.5529 0.2734 54.2202 0.426866 54.6939 0.733799C55.1677 1.04073 55.4012 1.50113 55.4012 2.12834V19.8237H55.4212ZM53.4595 18.0621V9.7416C52.8924 10.0285 52.5721 10.1953 52.5054 10.2487C52.1984 10.4622 52.0516 10.7291 52.0516 11.0427V18.0621C52.0516 18.2223 52.1184 18.349 52.2518 18.4425C52.3852 18.5425 52.5521 18.5893 52.7522 18.5893C52.9257 18.5893 53.0792 18.5492 53.206 18.4692C53.3728 18.3691 53.4528 18.2356 53.4528 18.0621H53.4595Z" fill="var(--fill-0, #1ECAD3)"/>
<path id="Vector_6" d="M64.7052 19.8238H62.57V0.1735H64.7052V19.8238Z" fill="var(--fill-0, #1ECAD3)"/>
<path id="Vector_7" d="M77.0011 19.8238H75.1395V1.84159C75.1395 1.67478 75.0661 1.54801 74.9193 1.44792C74.7725 1.34783 74.6124 1.30113 74.4256 1.30113C74.2388 1.30113 74.0786 1.34116 73.9385 1.4279C73.7984 1.50797 73.725 1.64809 73.725 1.84159V19.8238H71.83V0.120104H73.6916V0.840728C73.8584 0.567158 74.1253 0.360312 74.5057 0.220191C74.886 0.0733969 75.2596 0 75.64 0C76.1271 0 76.4807 0.120104 76.6875 0.353639C76.8944 0.587175 76.9945 1.02756 76.9945 1.66811V19.8238H77.0011Z" fill="var(--fill-0, #1ECAD3)"/>
</g>
</g>
</svg>
