<svg preserveAspectRatio="none" width="100%" height="100%" overflow="visible" style="display: block;" viewBox="0 0 76.2359 3.84334" fill="none" xmlns="http://www.w3.org/2000/svg">
<g id="Group">
<path id="Vector" d="M3.20277 3.52306C3.20277 3.56309 3.18276 3.59646 3.14939 3.62982C3.11603 3.65651 3.05598 3.6832 2.98925 3.70322C2.91586 3.72323 2.84246 3.73658 2.76239 3.74992C2.68232 3.76327 2.59558 3.77662 2.50884 3.78329C2.46213 3.78329 2.4221 3.78329 2.37539 3.78996C2.33536 3.78996 2.28865 3.78996 2.24861 3.79663C2.20858 3.79663 2.16854 3.79663 2.12851 3.8033C2.09515 3.8033 2.06179 3.8033 2.02175 3.8033C1.70815 3.8033 1.4279 3.76994 1.18102 3.69655C0.934142 3.62315 0.720624 3.50972 0.540468 3.35625C0.360312 3.20278 0.226863 3.02263 0.133449 2.82245C0.0400347 2.61561 0 2.38875 0 2.13519C0 1.83493 0.0533795 1.56136 0.166811 1.31448C0.27357 1.0676 0.440381 0.840739 0.660572 0.633893C0.880763 0.43372 1.13432 0.280254 1.4279 0.180167C1.72149 0.0800802 2.04844 0.026701 2.41542 0.026701H2.47548C2.47548 0.026701 2.49549 0.026701 2.50884 0.026701H2.65563C2.70234 0.026701 2.75572 0.040045 2.80243 0.0467175C2.85581 0.0533899 2.90251 0.0600616 2.94922 0.066734C2.99593 0.0734065 3.04931 0.0867519 3.09601 0.0934244C3.14272 0.106769 3.1961 0.120115 3.23614 0.13346C3.23614 0.13346 3.24281 0.13346 3.24948 0.13346C3.2695 0.13346 3.28951 0.146805 3.30286 0.16015C3.3162 0.166823 3.33622 0.180166 3.34957 0.186838C3.36291 0.186838 3.37626 0.206858 3.38293 0.220202C3.3896 0.233547 3.39627 0.246892 3.39627 0.266909V0.360323C3.39627 0.360323 3.39627 0.373669 3.39627 0.387014V0.467082C3.39627 0.467082 3.39627 0.467082 3.3896 0.480427V0.493773C3.3896 0.493773 3.38293 0.500443 3.37626 0.507115C3.37626 0.507115 3.37626 0.513788 3.36958 0.52046C3.36958 0.52046 3.35624 0.533806 3.34957 0.533806C3.34289 0.533806 3.32955 0.533806 3.32288 0.533806H3.30286C3.30286 0.533806 3.29619 0.533806 3.28951 0.533806C3.28951 0.533806 3.28284 0.533806 3.27617 0.533806C3.2695 0.533806 3.26282 0.533806 3.25615 0.533806C3.25615 0.533806 3.24281 0.527133 3.23614 0.52046H3.22279C3.22279 0.52046 3.22279 0.52046 3.21612 0.52046H3.20277C3.14939 0.500443 3.09601 0.480427 3.04263 0.467082C2.98925 0.453737 2.93588 0.440391 2.8825 0.427047C2.82244 0.427047 2.76906 0.413703 2.70901 0.40703C2.65563 0.40703 2.59558 0.393685 2.5422 0.393685H2.4221C2.14185 0.393685 1.90165 0.43372 1.68146 0.513789C1.46794 0.600531 1.28111 0.720634 1.12764 0.880773C0.967504 1.04091 0.8474 1.21439 0.760659 1.40122C0.673917 1.58805 0.62721 1.78822 0.613865 2.00842C0.613865 2.20859 0.647227 2.39542 0.707279 2.56223C0.767331 2.72904 0.854073 2.88918 0.974177 3.0293C1.09428 3.16942 1.24775 3.26951 1.43458 3.3429C1.6214 3.40963 1.84827 3.44299 2.11516 3.44299H2.21525C2.21525 3.44299 2.24194 3.44299 2.25529 3.44299C2.28865 3.44299 2.32201 3.44299 2.35537 3.44299C2.38873 3.44299 2.4221 3.44299 2.45546 3.44299C2.48882 3.44299 2.52218 3.43632 2.55555 3.42965C2.58891 3.42965 2.62227 3.4163 2.65563 3.40963C2.72236 3.39628 2.78241 3.38294 2.84913 3.36959C2.90919 3.34958 2.97591 3.32956 3.03596 3.30287C3.03596 3.30287 3.04263 3.30287 3.04931 3.30287C3.04931 3.30287 3.04931 3.30287 3.05598 3.2962C3.05598 3.2962 3.06265 3.2962 3.06932 3.2962H3.08934C3.08934 3.2962 3.09601 3.2962 3.10269 3.2962C3.10269 3.2962 3.10936 3.2962 3.11603 3.2962C3.11603 3.2962 3.14272 3.2962 3.15607 3.2962C3.16941 3.2962 3.18276 3.30287 3.18943 3.31622C3.1961 3.31622 3.20945 3.32956 3.21612 3.33623C3.21612 3.34958 3.22946 3.36292 3.22946 3.37627V3.36292L3.21612 3.5631L3.20277 3.52306Z" fill="var(--fill-0, #1ECAD3)"/>
<path id="Vector_2" d="M4.81719 3.62981C4.81719 3.62981 4.81719 3.67652 4.80385 3.68986C4.80385 3.70321 4.7905 3.71656 4.77049 3.72323C4.75714 3.73657 4.7438 3.74324 4.72378 3.74324C4.70376 3.74324 4.69042 3.74324 4.66373 3.74324H4.33678C4.33678 3.74324 4.29674 3.74324 4.27672 3.74324C4.25671 3.74324 4.24336 3.73657 4.23669 3.72323C4.22335 3.71656 4.21667 3.70321 4.21 3.68986C4.21 3.67652 4.21 3.6565 4.21 3.64316L4.41685 0.186831C4.41685 0.186831 4.41685 0.160143 4.43019 0.146798C4.43686 0.133453 4.45021 0.126781 4.46355 0.113436C4.4769 0.106764 4.49024 0.100089 4.51026 0.093417C4.53028 0.093417 4.55029 0.0867457 4.57031 0.0867457L5.68461 0.0734005C5.85142 0.0734005 6.01156 0.10009 6.15835 0.133453C6.30515 0.166815 6.44527 0.213523 6.57872 0.280247C6.70549 0.346972 6.80558 0.433712 6.86563 0.547143C6.93236 0.660575 6.96572 0.794024 6.96572 0.954163C6.96572 1.09428 6.93236 1.22106 6.87898 1.33449C6.81893 1.44792 6.73218 1.55468 6.61208 1.6481C6.49198 1.74151 6.3652 1.81491 6.22508 1.86829C6.08496 1.92167 5.93816 1.95503 5.77802 1.9617L6.2451 2.52886C6.31849 2.62227 6.38522 2.71569 6.45861 2.8091C6.53201 2.90252 6.60541 2.98926 6.6788 3.076C6.7522 3.16941 6.83227 3.25615 6.90567 3.3429C6.98574 3.42964 7.06581 3.51638 7.14587 3.59645V3.6098C7.14587 3.6098 7.14588 3.6098 7.15922 3.6098C7.15922 3.6098 7.15922 3.6098 7.16589 3.61647C7.16589 3.61647 7.16589 3.61647 7.17924 3.62314C7.17924 3.62314 7.17924 3.62314 7.17924 3.62981C7.17924 3.62981 7.17924 3.62981 7.18591 3.63649C7.18591 3.63649 7.18591 3.64316 7.18591 3.64983C7.18591 3.64983 7.18591 3.6565 7.18591 3.66318V3.67652C7.18591 3.67652 7.18591 3.69654 7.18591 3.70321C7.18591 3.70988 7.17257 3.71655 7.16589 3.7299C7.15922 3.7299 7.14588 3.7299 7.13253 3.73657C7.11919 3.73657 7.11251 3.73657 7.09917 3.73657H6.52534C6.52534 3.73657 6.50532 3.73657 6.49198 3.73657C6.47863 3.73657 6.47196 3.72323 6.46529 3.71655C6.45861 3.71655 6.45194 3.70321 6.4386 3.69654L5.10411 1.98172H4.89059L4.78383 3.62314L4.81719 3.62981ZM5.47776 1.64142C5.47776 1.64142 5.49778 1.64142 5.50445 1.64142H5.52447C5.62456 1.64142 5.72464 1.62808 5.81806 1.60139C5.91815 1.5747 6.00489 1.54134 6.09163 1.48796C6.17837 1.43458 6.2451 1.37453 6.2918 1.29446C6.33851 1.21439 6.35853 1.12765 6.35853 1.02756C6.35853 0.927473 6.33851 0.840732 6.31182 0.767335C6.27846 0.693938 6.23175 0.633886 6.1717 0.587179C6.10497 0.533799 6.03158 0.500436 5.93816 0.473746C5.84475 0.447056 5.74466 0.440384 5.63123 0.440384L5.02404 0.427039L4.94397 1.63475H5.48444L5.47776 1.64142Z" fill="var(--fill-0, #1ECAD3)"/>
<path id="Vector_3" d="M8.78397 1.63475H10.1585C10.1585 1.63475 10.1985 1.6481 10.2185 1.65477C10.2386 1.65477 10.2519 1.66811 10.2586 1.68146C10.2653 1.6948 10.2719 1.70815 10.2786 1.72149C10.2786 1.73484 10.2786 1.75486 10.2786 1.7682V1.78155V1.80823V1.86829C10.2786 1.86829 10.2719 1.90832 10.2653 1.92834C10.2653 1.94836 10.2519 1.9617 10.2452 1.98172C10.2386 1.99506 10.2185 2.00841 10.2052 2.01508C10.1852 2.02175 10.1652 2.02843 10.1385 2.02843L8.76395 2.01508L8.67721 3.38961H10.5055C10.5055 3.38961 10.5455 3.40295 10.5655 3.40962C10.5855 3.40962 10.5989 3.42297 10.6055 3.42964C10.6122 3.42964 10.6189 3.44966 10.6256 3.463C10.6256 3.47635 10.6256 3.49636 10.6256 3.50971V3.55642C10.6256 3.55642 10.6189 3.61647 10.6122 3.63649C10.6122 3.6565 10.6122 3.67652 10.5989 3.69654C10.5989 3.70988 10.5789 3.72323 10.5588 3.7299C10.5388 3.7299 10.5121 3.74324 10.4721 3.74324H8.17678C8.17678 3.74324 8.13674 3.74324 8.11672 3.74324C8.09671 3.74324 8.08336 3.73657 8.07669 3.72323C8.06334 3.71656 8.05667 3.70321 8.05 3.68986C8.05 3.67652 8.05 3.66318 8.05 3.64983L8.26352 0.186831C8.26352 0.186831 8.26352 0.160143 8.27686 0.146798C8.28353 0.133453 8.29688 0.126781 8.31022 0.113436C8.32357 0.106764 8.33691 0.100089 8.35693 0.093417C8.37695 0.093417 8.39697 0.0867457 8.41698 0.0867457L10.6256 0.0734005C10.6256 0.0734005 10.6656 0.0867446 10.6789 0.093417C10.6923 0.093417 10.7123 0.106764 10.719 0.113436C10.7323 0.126781 10.739 0.133453 10.7457 0.146798C10.7457 0.160143 10.759 0.18016 10.759 0.193505V0.213521V0.253557C10.759 0.253557 10.7523 0.300263 10.7457 0.32028C10.7457 0.340298 10.7323 0.360315 10.7256 0.380332C10.7256 0.40035 10.7056 0.413695 10.6856 0.420368C10.6656 0.42704 10.6389 0.433713 10.5989 0.433713L8.85737 0.420368L8.7773 1.62808L8.78397 1.63475Z" fill="var(--fill-0, #1ECAD3)"/>
<path id="Vector_4" d="M12.2643 2.53553L11.7105 3.66985C11.7105 3.66985 11.6971 3.70321 11.6905 3.70988C11.6838 3.71655 11.6704 3.7299 11.6638 3.73657C11.6571 3.73657 11.6438 3.73657 11.6304 3.74324C11.6171 3.74324 11.6037 3.74324 11.5904 3.74324H11.2101C11.2101 3.74324 11.19 3.74324 11.1834 3.74324C11.1767 3.74324 11.17 3.73657 11.1567 3.7299C11.1567 3.7299 11.15 3.71655 11.15 3.70321V3.68319C11.15 3.68319 11.15 3.66985 11.15 3.66317C11.15 3.6565 11.15 3.66317 11.15 3.64983C11.15 3.64983 11.15 3.64316 11.1633 3.63648C11.1633 3.62981 11.1633 3.62314 11.1633 3.61647L12.9449 0.113435C12.9449 0.113435 12.9649 0.0867441 12.9782 0.0733992C12.9916 0.0600543 13.0049 0.0533824 13.0116 0.0400375C13.025 0.033365 13.0383 0.0266909 13.0583 0.0200184C13.0783 0.0200184 13.0984 0.0133471 13.125 0.0133471L13.452 1.90735e-06C13.452 1.90735e-06 13.492 0.013346 13.512 0.0200184C13.5321 0.0200184 13.5454 0.0333639 13.5521 0.0467088C13.5654 0.0600537 13.5721 0.0733981 13.5854 0.0800705C13.5988 0.0934154 13.6055 0.10676 13.6121 0.126777L14.7331 3.60979V3.62314C14.7331 3.62314 14.7331 3.62314 14.7398 3.62981V3.6565V3.66985C14.7398 3.66985 14.7398 3.68986 14.7264 3.69654C14.7264 3.69654 14.7131 3.70988 14.6997 3.71655C14.6931 3.71655 14.6797 3.71655 14.6664 3.72323C14.653 3.72323 14.6464 3.72323 14.6397 3.72323H14.246C14.246 3.72323 14.2127 3.72323 14.1926 3.72323C14.1726 3.72323 14.1593 3.72323 14.1459 3.70988C14.1326 3.70321 14.1192 3.68986 14.1126 3.67652C14.1059 3.66317 14.0992 3.64983 14.0925 3.63648L13.7789 2.51551H12.2443L12.2643 2.53553ZM13.3653 0.980852C13.3653 0.980852 13.3586 0.960835 13.3519 0.94749C13.3519 0.934145 13.3452 0.9208 13.3386 0.907455C13.3386 0.900782 13.3319 0.894111 13.3252 0.887438C13.3252 0.880766 13.3252 0.86742 13.3252 0.860748C13.3252 0.854075 13.3252 0.847401 13.3252 0.840729V0.814041C13.3252 0.814041 13.3119 0.753988 13.3052 0.727298C13.3052 0.700609 13.2919 0.667246 13.2785 0.640556C13.2785 0.627211 13.2718 0.613868 13.2652 0.600523C13.2652 0.587178 13.2652 0.567161 13.2652 0.553816C13.2652 0.540471 13.2585 0.520451 13.2518 0.507107C13.2518 0.487089 13.2518 0.473744 13.2451 0.4604L12.4311 2.16855H13.7055L13.3719 0.994197L13.3653 0.980852Z" fill="var(--fill-0, #1ECAD3)"/>
<path id="Vector_5" d="M15.3301 0.420186H15.3034C15.3034 0.420186 15.2767 0.420186 15.27 0.420186C15.2634 0.420186 15.2567 0.413511 15.25 0.400167C15.2433 0.386822 15.2367 0.373477 15.23 0.366805C15.23 0.35346 15.23 0.333444 15.23 0.326772V0.300081V0.273391V0.233355C15.23 0.233355 15.23 0.21334 15.23 0.206668C15.23 0.199995 15.23 0.186648 15.2433 0.173303C15.2433 0.173303 15.2433 0.15996 15.25 0.146615C15.25 0.133271 15.25 0.126598 15.2634 0.119925C15.2634 0.0999078 15.2767 0.086562 15.2901 0.0798895C15.3101 0.0798895 15.3301 0.0665443 15.3634 0.0665443L18.4528 0.0532017C18.4528 0.0532017 18.4928 0.0665457 18.5062 0.0732182C18.5195 0.0732182 18.5329 0.0865623 18.5395 0.0932347C18.5462 0.10658 18.5529 0.113252 18.5595 0.126596C18.5595 0.139941 18.5729 0.159958 18.5729 0.173303V0.193322V0.233355V0.253374C18.5729 0.253374 18.5662 0.293409 18.5595 0.313427C18.5595 0.333444 18.5462 0.346787 18.5395 0.366805C18.5329 0.38015 18.5128 0.393494 18.4995 0.400167C18.4795 0.406839 18.4528 0.413512 18.4261 0.413512L17.1917 0.400167L16.9849 3.61629C16.9849 3.61629 16.9849 3.66299 16.9782 3.67634C16.9782 3.68968 16.9582 3.70303 16.9448 3.7097C16.9315 3.71637 16.9181 3.72305 16.8981 3.72305C16.8781 3.72305 16.8581 3.72305 16.8381 3.72305H16.5111C16.5111 3.72305 16.4711 3.72305 16.4511 3.72305C16.431 3.72305 16.4177 3.71637 16.411 3.70303C16.3977 3.69635 16.391 3.68301 16.3843 3.66966C16.3843 3.65632 16.3843 3.64297 16.3843 3.62963L16.5845 0.40684H15.3434L15.3301 0.420186Z" fill="var(--fill-0, #1ECAD3)"/>
<path id="Vector_6" d="M19.2735 0.180034C19.2735 0.180034 19.2735 0.153343 19.2869 0.139998C19.2935 0.126653 19.3069 0.119981 19.3202 0.106636C19.3336 0.0999639 19.3536 0.0932923 19.3669 0.0866199C19.387 0.0866199 19.4003 0.079946 19.427 0.079946L19.7539 0.0666008C19.7539 0.0666008 19.794 0.0799474 19.8073 0.0866199C19.8207 0.0866199 19.8407 0.0999639 19.8473 0.106636C19.854 0.119981 19.8607 0.126653 19.8674 0.139998C19.874 0.153343 19.8807 0.17336 19.8807 0.186705L19.6605 3.62969C19.6605 3.62969 19.6605 3.67639 19.6538 3.68974C19.6538 3.70308 19.6338 3.71643 19.6205 3.7231C19.6071 3.72977 19.5938 3.73644 19.5738 3.73644C19.5538 3.73644 19.5404 3.73644 19.5137 3.73644H19.1868C19.1868 3.73644 19.1467 3.73644 19.1267 3.73644C19.1067 3.73644 19.0934 3.72977 19.0867 3.71643C19.0733 3.70976 19.0667 3.69641 19.06 3.68307C19.06 3.66972 19.06 3.65638 19.06 3.64303V3.62969L19.2735 0.17336V0.180034Z" fill="var(--fill-0, #1ECAD3)"/>
<path id="Vector_7" d="M22.3213 3.25609C22.3413 3.21605 22.3547 3.16934 22.3747 3.12931C22.3814 3.10262 22.3947 3.0826 22.4081 3.06259C22.4214 3.04257 22.4281 3.01588 22.4414 2.99586C22.4481 2.97584 22.4614 2.95583 22.4748 2.93581C22.4881 2.91579 22.4948 2.89577 22.5015 2.86908L23.8026 0.146728C23.8026 0.146728 23.8159 0.133381 23.8226 0.126709C23.8226 0.120036 23.836 0.113365 23.8493 0.106692C23.856 0.106692 23.8693 0.093347 23.8827 0.093347C23.896 0.093347 23.9094 0.093347 23.9294 0.093347L24.2497 0.0800018V0.093347C24.2497 0.093347 24.2763 0.0933473 24.283 0.106692C24.2964 0.106692 24.303 0.113364 24.3164 0.126709C24.323 0.126709 24.3297 0.133383 24.3431 0.146728C24.3431 0.1534 24.3497 0.166743 24.3497 0.173416V0.193435C24.3497 0.193435 24.3497 0.193435 24.3497 0.20678V0.220125C24.3497 0.220125 24.3497 0.226795 24.3497 0.233468V0.246813V0.260158L22.5749 3.70981C22.5749 3.70981 22.5549 3.74985 22.5415 3.76319C22.5282 3.77654 22.5148 3.78321 22.5081 3.78988C22.4948 3.79655 22.4815 3.80323 22.4614 3.8099C22.4414 3.8099 22.4281 3.81657 22.4014 3.81657H22.0744C22.0744 3.81657 22.0277 3.81657 22.0077 3.8099C21.9877 3.8099 21.9743 3.79656 21.961 3.78321C21.9477 3.78321 21.9343 3.76986 21.9276 3.75652C21.921 3.74317 21.9076 3.72316 21.901 3.70981L20.8 0.253487V0.233468V0.213451C20.8 0.213451 20.8 0.180089 20.8 0.166744C20.8 0.153399 20.8133 0.146728 20.8267 0.146728C20.8334 0.146728 20.8467 0.133383 20.8601 0.133383C20.8734 0.133383 20.8867 0.133383 20.9068 0.133383L21.2671 0.120037C21.2671 0.120037 21.3071 0.133381 21.3205 0.140054C21.3338 0.140054 21.3471 0.153401 21.3605 0.160073C21.3672 0.173418 21.3805 0.18009 21.3872 0.193435C21.3938 0.20678 21.4005 0.220123 21.4072 0.233468L22.2012 2.91579C22.2012 2.91579 22.2079 2.94915 22.2146 2.9625C22.2146 2.97584 22.2212 2.98919 22.2279 3.00253C22.2279 3.01588 22.2279 3.03589 22.2279 3.04924C22.2279 3.06258 22.2346 3.07593 22.2412 3.08928C22.2412 3.10262 22.2412 3.12264 22.2479 3.13598C22.2479 3.14933 22.2479 3.16267 22.2613 3.17602C22.2613 3.18936 22.2679 3.20271 22.2746 3.21605C22.2746 3.2294 22.2746 3.24941 22.2813 3.26276C22.2813 3.2761 22.2813 3.28945 22.2813 3.30279C22.2813 3.31614 22.2813 3.33616 22.288 3.3495C22.288 3.36285 22.288 3.37619 22.288 3.38954C22.288 3.40288 22.288 3.41622 22.2946 3.42957V3.41622C22.308 3.38286 22.328 3.33615 22.3413 3.29612L22.3213 3.25609Z" fill="var(--fill-0, #1ECAD3)"/>
<path id="Vector_8" d="M25.734 1.63475H27.1085C27.1085 1.63475 27.1485 1.6481 27.1685 1.65477C27.1886 1.65477 27.2019 1.66811 27.2086 1.68146C27.2153 1.6948 27.2219 1.70815 27.2286 1.72149C27.2286 1.73484 27.2286 1.75486 27.2286 1.7682V1.78155V1.80823V1.86829C27.2286 1.86829 27.2219 1.90832 27.2153 1.92834C27.2153 1.94836 27.2019 1.9617 27.1952 1.98172C27.1886 1.99506 27.1752 2.00841 27.1552 2.01508C27.1352 2.02175 27.1152 2.02843 27.0885 2.02843L25.714 2.01508L25.6272 3.38961H27.4555C27.4555 3.38961 27.4955 3.40295 27.5155 3.40962C27.5355 3.40962 27.5489 3.42297 27.5555 3.42964C27.5622 3.42964 27.5689 3.44966 27.5756 3.463C27.5756 3.47635 27.5756 3.49636 27.5756 3.50971V3.55642C27.5756 3.55642 27.5689 3.61647 27.5622 3.63649C27.5622 3.6565 27.5622 3.67652 27.5489 3.69654C27.5489 3.70988 27.5289 3.72323 27.5088 3.7299C27.4888 3.7299 27.4621 3.74324 27.4221 3.74324H25.1268C25.1268 3.74324 25.0867 3.74324 25.0667 3.74324C25.0467 3.74324 25.0334 3.73657 25.0267 3.72323C25.0133 3.71656 25.0067 3.70321 25 3.68986C25 3.67652 25 3.66318 25 3.64983L25.2135 0.186831C25.2135 0.186831 25.2135 0.160143 25.2269 0.146798C25.2335 0.133453 25.2469 0.126781 25.2602 0.113436C25.2736 0.106764 25.2869 0.100089 25.3069 0.093417C25.3269 0.093417 25.347 0.0867457 25.367 0.0867457L27.5756 0.0734005C27.5756 0.0734005 27.6156 0.0867446 27.6289 0.093417C27.6423 0.093417 27.6556 0.106764 27.669 0.113436C27.6823 0.126781 27.689 0.133453 27.6957 0.146798C27.6957 0.160143 27.709 0.18016 27.709 0.193505V0.213521V0.253557C27.709 0.253557 27.7023 0.300263 27.6957 0.32028C27.6957 0.340298 27.6823 0.360315 27.6756 0.380332C27.6756 0.40035 27.6556 0.413695 27.6356 0.420368C27.6156 0.42704 27.5889 0.433713 27.5489 0.433713L25.8074 0.420368L25.7273 1.62808L25.734 1.63475Z" fill="var(--fill-0, #1ECAD3)"/>
<path id="Vector_9" d="M30.9568 0.180034C30.9568 0.180034 30.9568 0.153343 30.9702 0.139998C30.9835 0.126653 30.9902 0.113309 31.0036 0.106636C31.0169 0.0999639 31.0302 0.0932923 31.0503 0.0866199C31.0703 0.0866199 31.0903 0.079946 31.1103 0.079946L32.3047 0.0666008C32.6049 0.0666008 32.8718 0.113308 33.112 0.186705C33.3523 0.260102 33.5658 0.366862 33.7393 0.513656C33.9194 0.66045 34.0529 0.827261 34.1463 1.02743C34.2397 1.22761 34.2864 1.45447 34.2864 1.70802C34.2864 1.97492 34.233 2.22847 34.1329 2.46201C34.0328 2.69554 33.8794 2.92241 33.6859 3.12925C33.4857 3.3361 33.2522 3.48957 32.9786 3.58965C32.7117 3.68974 32.4048 3.74312 32.0711 3.74312H30.8768C30.8768 3.74312 30.8367 3.74312 30.8167 3.74312C30.7967 3.74312 30.7834 3.74312 30.7767 3.72977C30.7633 3.72977 30.7567 3.70976 30.75 3.69641C30.75 3.68307 30.75 3.66305 30.75 3.6497V3.63636L30.9635 0.180034H30.9568ZM32.0111 3.38948C32.2713 3.39615 32.4982 3.36279 32.6984 3.28272C32.8985 3.20265 33.072 3.07587 33.2121 2.91573C33.3589 2.7556 33.4657 2.58211 33.5458 2.40196C33.6258 2.2218 33.6659 2.03497 33.6792 1.8348V1.74139C33.6792 1.5679 33.6458 1.40109 33.5858 1.24762C33.5257 1.09416 33.4323 0.954038 33.3055 0.827261C33.1854 0.700485 33.032 0.600397 32.8585 0.533672C32.685 0.47362 32.4848 0.440259 32.258 0.440259L31.5574 0.426913L31.3705 3.39615H32.0111V3.38948Z" fill="var(--fill-0, #1ECAD3)"/>
<path id="Vector_10" d="M36.134 1.63475H37.5085C37.5085 1.63475 37.5485 1.6481 37.5685 1.65477C37.5886 1.65477 37.6019 1.66811 37.6086 1.68146C37.6153 1.6948 37.6219 1.70815 37.6286 1.72149C37.6286 1.73484 37.6286 1.75486 37.6286 1.7682V1.78155V1.80823V1.86829C37.6286 1.86829 37.6219 1.90832 37.6153 1.92834C37.6153 1.94836 37.6019 1.9617 37.5952 1.98172C37.5886 1.99506 37.5752 2.00841 37.5552 2.01508C37.5352 2.02175 37.5152 2.02843 37.4885 2.02843L36.114 2.01508L36.0272 3.38961H37.8555C37.8555 3.38961 37.8955 3.40295 37.9155 3.40962C37.9355 3.40962 37.9489 3.42297 37.9555 3.42964C37.9622 3.42964 37.9689 3.44966 37.9756 3.463C37.9756 3.47635 37.9756 3.49636 37.9756 3.50971V3.55642C37.9756 3.55642 37.9689 3.61647 37.9622 3.63649C37.9622 3.6565 37.9622 3.67652 37.9489 3.69654C37.9489 3.70988 37.9289 3.72323 37.9088 3.7299C37.8888 3.7299 37.8621 3.74324 37.8221 3.74324H35.5268C35.5268 3.74324 35.4867 3.74324 35.4667 3.74324C35.4467 3.74324 35.4334 3.73657 35.4267 3.72323C35.4133 3.71656 35.4067 3.70321 35.4 3.68986C35.4 3.67652 35.4 3.66318 35.4 3.64983L35.6135 0.186831C35.6135 0.186831 35.6135 0.160143 35.6269 0.146798C35.6335 0.133453 35.6469 0.126781 35.6602 0.113436C35.6736 0.106764 35.6869 0.100089 35.7069 0.093417C35.727 0.093417 35.747 0.0867457 35.767 0.0867457L37.9756 0.0734005C37.9756 0.0734005 38.0156 0.0867446 38.0289 0.093417C38.0423 0.093417 38.0556 0.106764 38.069 0.113436C38.0823 0.126781 38.089 0.133453 38.0957 0.146798C38.0957 0.160143 38.109 0.18016 38.109 0.193505V0.213521V0.253557C38.109 0.253557 38.1023 0.300263 38.0957 0.32028C38.0957 0.340298 38.0823 0.360315 38.0757 0.380332C38.0757 0.40035 38.0556 0.413695 38.0356 0.420368C38.0156 0.42704 37.9889 0.433713 37.9489 0.433713L36.2074 0.420368L36.1273 1.62808L36.134 1.63475Z" fill="var(--fill-0, #1ECAD3)"/>
<path id="Vector_11" d="M38.67 3.45628V3.44294V3.38289C38.67 3.38289 38.67 3.36954 38.67 3.36287V3.33618C38.67 3.33618 38.67 3.30282 38.6767 3.2828C38.6767 3.26278 38.69 3.24944 38.6967 3.23609C38.7034 3.21607 38.7167 3.20273 38.7234 3.19606C38.7301 3.19606 38.7434 3.18271 38.7567 3.18271V3.16937C38.7567 3.16937 38.7701 3.18271 38.7768 3.18271C38.7768 3.18271 38.7834 3.18271 38.7901 3.18271H38.8035H38.8168C38.8168 3.18271 38.8568 3.19606 38.8835 3.20273C38.9035 3.2094 38.9302 3.22275 38.9569 3.23609C38.9769 3.24944 39.0036 3.25611 39.0303 3.26946C39.057 3.2828 39.0837 3.28947 39.1104 3.30282C39.1504 3.31616 39.1905 3.33618 39.2372 3.34952C39.2772 3.36287 39.3306 3.38289 39.384 3.39623C39.4307 3.40958 39.4907 3.42292 39.5508 3.42959C39.6175 3.42959 39.6842 3.42959 39.7509 3.42959C39.8577 3.42959 39.9578 3.42292 40.0512 3.39623C40.1513 3.37621 40.238 3.34285 40.3181 3.29614C40.4048 3.25611 40.4782 3.20273 40.5249 3.13601C40.5716 3.06261 40.605 2.98254 40.6117 2.88245C40.6117 2.8224 40.605 2.76902 40.585 2.72231C40.5716 2.67561 40.545 2.62223 40.5183 2.58219C40.4849 2.53548 40.4515 2.49545 40.4115 2.45542C40.3715 2.41538 40.3181 2.38202 40.2714 2.34198L39.404 1.76148C39.3306 1.72145 39.2638 1.67474 39.2038 1.61469C39.1437 1.56131 39.0904 1.49459 39.0437 1.43453C39.0036 1.36781 38.9636 1.30108 38.9436 1.22769C38.9169 1.15429 38.9102 1.08089 38.9102 1.00082C38.9102 0.847357 38.9436 0.707236 39.017 0.587132C39.0904 0.467028 39.1904 0.36027 39.3306 0.280201C39.4707 0.193459 39.6175 0.133406 39.771 0.0866991C39.9244 0.039992 40.0846 0.0199743 40.258 0.0133018H40.3314C40.3314 0.0133018 40.3781 0.0133018 40.4115 0.0133018C40.4449 0.0133018 40.4849 0.0133022 40.5183 0.026647C40.5583 0.026647 40.5983 0.0333198 40.6384 0.0399922C40.6784 0.0466647 40.7251 0.0533363 40.7651 0.0600088C40.8252 0.0733536 40.8853 0.0933722 40.9453 0.11339C41.0054 0.133407 41.0587 0.146749 41.1121 0.173439C41.1655 0.193456 41.2055 0.220148 41.2322 0.240165C41.2589 0.266855 41.2723 0.286871 41.2723 0.320234L41.2589 0.540426V0.560442C41.2589 0.560442 41.2589 0.573788 41.2522 0.587132C41.2522 0.587132 41.2456 0.600476 41.2322 0.607149C41.2322 0.607149 41.2189 0.607149 41.2055 0.620494C41.1922 0.620494 41.1855 0.620494 41.1788 0.620494C41.1655 0.620494 41.1455 0.620494 41.1321 0.620494C41.1121 0.620494 41.0854 0.600477 41.0587 0.587132C41.0254 0.573788 40.992 0.560442 40.9586 0.547097C40.9253 0.533752 40.8853 0.513735 40.8385 0.50039C40.7985 0.487045 40.7585 0.467027 40.7184 0.460354C40.6784 0.447009 40.6317 0.433666 40.585 0.420321C40.5583 0.420321 40.5383 0.406976 40.5116 0.406976C40.4849 0.406976 40.4649 0.400303 40.4449 0.393631C40.4182 0.393631 40.3915 0.393631 40.3715 0.380286C40.3448 0.380286 40.3248 0.380286 40.3047 0.380286H40.2047C40.2047 0.380286 40.1846 0.380286 40.178 0.380286H40.1513C40.1513 0.380286 40.1179 0.380286 40.1046 0.380286C40.0912 0.380286 40.0712 0.380286 40.0579 0.380286C39.9778 0.393631 39.9044 0.413649 39.831 0.433667C39.7576 0.460356 39.6909 0.487045 39.6242 0.533752C39.5574 0.567114 39.5107 0.61382 39.4774 0.673872C39.444 0.727252 39.4307 0.793977 39.4307 0.867374C39.4307 0.927426 39.4373 0.980805 39.4573 1.03418C39.4774 1.08756 39.5041 1.13427 39.5441 1.17431C39.5841 1.21434 39.6242 1.26105 39.6709 1.29441C39.7176 1.33444 39.771 1.36781 39.8243 1.40117L40.6851 1.92829C40.7585 1.98167 40.8319 2.04173 40.8919 2.10178C40.952 2.16183 41.0054 2.22188 41.0521 2.28861C41.0988 2.35533 41.1388 2.42205 41.1588 2.49545C41.1855 2.56885 41.1922 2.64892 41.1922 2.72231C41.1922 2.88913 41.1521 3.04259 41.0788 3.16937C41.0054 3.30282 40.8919 3.40957 40.7518 3.50966C40.605 3.60308 40.4449 3.67647 40.2781 3.72318C40.1112 3.76989 39.9311 3.7899 39.7443 3.7899C39.7176 3.7899 39.6909 3.7899 39.6509 3.7899C39.6175 3.7899 39.5708 3.7899 39.5241 3.77656C39.4774 3.77656 39.4307 3.76989 39.384 3.76321C39.3306 3.75654 39.2839 3.74987 39.2372 3.73652C39.1638 3.73652 39.097 3.71651 39.0303 3.70316C38.9636 3.68315 38.9035 3.66313 38.8435 3.63644C38.7901 3.60975 38.7434 3.58306 38.7167 3.5497C38.6833 3.51633 38.6767 3.48297 38.6767 3.44294V3.42959L38.67 3.45628Z" fill="var(--fill-0, #1ECAD3)"/>
<path id="Vector_12" d="M42.4935 0.180034C42.4935 0.180034 42.4935 0.153343 42.5069 0.139998C42.5135 0.126653 42.5269 0.119981 42.5402 0.106636C42.5536 0.0999639 42.5669 0.0932923 42.5869 0.0866199C42.607 0.0866199 42.627 0.079946 42.647 0.079946L42.9739 0.0666008C42.9739 0.0666008 43.014 0.0799474 43.0273 0.0866199C43.0407 0.0866199 43.0607 0.0999639 43.0674 0.106636C43.074 0.119981 43.0807 0.126653 43.0874 0.139998C43.0874 0.153343 43.1007 0.17336 43.1007 0.186705L42.8805 3.62969C42.8805 3.62969 42.8805 3.67639 42.8672 3.68974C42.8672 3.70308 42.8538 3.71643 42.8405 3.7231C42.8271 3.72977 42.8071 3.73644 42.7938 3.73644C42.7738 3.73644 42.7604 3.73644 42.7337 3.73644H42.4068C42.4068 3.73644 42.3667 3.73644 42.3467 3.73644C42.3267 3.73644 42.3134 3.72977 42.3067 3.71643C42.2933 3.70976 42.2867 3.69641 42.28 3.68307C42.28 3.66972 42.28 3.65638 42.28 3.64303V3.62969L42.4935 0.17336V0.180034Z" fill="var(--fill-0, #1ECAD3)"/>
<path id="Vector_13" d="M47.0624 2.01509C47.0624 2.01509 47.0624 1.9884 47.0758 1.97505C47.0758 1.96171 47.0891 1.94836 47.1091 1.94169C47.1158 1.94169 47.1292 1.92835 47.1492 1.92168C47.1692 1.92168 47.1825 1.915 47.2092 1.915L47.5562 1.90166C47.5562 1.90166 47.5962 1.915 47.6162 1.92168C47.6363 1.92168 47.6496 1.93502 47.6563 1.94169C47.6629 1.95504 47.6696 1.96838 47.6763 1.98173C47.6763 1.99507 47.6763 2.01509 47.6763 2.02843L47.5762 3.52973C47.5762 3.56977 47.5562 3.6098 47.5228 3.63649C47.4895 3.66986 47.4361 3.68987 47.3627 3.70989C47.2893 3.73658 47.2226 3.74992 47.1425 3.7566C47.0691 3.76994 46.989 3.78329 46.909 3.78996C46.8623 3.78996 46.8155 3.8033 46.7688 3.8033C46.7221 3.8033 46.6754 3.8033 46.6287 3.80998C46.582 3.80998 46.542 3.80998 46.5019 3.81665C46.4619 3.81665 46.4285 3.81665 46.3952 3.81665C46.0749 3.81665 45.788 3.78329 45.5278 3.70989C45.2675 3.64317 45.0407 3.53641 44.8472 3.38294C44.6537 3.24282 44.5002 3.06266 44.4068 2.84914C44.3067 2.63563 44.26 2.39542 44.26 2.11518C44.26 1.81492 44.3201 1.53467 44.4335 1.28112C44.5469 1.02757 44.7204 0.800704 44.9473 0.607203C45.1808 0.413702 45.441 0.266907 45.7413 0.173493C46.0349 0.0734063 46.3685 0.026701 46.7355 0.026701C46.7488 0.026701 46.7688 0.026701 46.7955 0.026701C46.8289 0.026701 46.8689 0.0266999 46.9223 0.0333723C46.9757 0.0333723 47.0291 0.0333726 47.0824 0.0467175C47.1425 0.0467175 47.1959 0.0533891 47.2559 0.066734C47.3227 0.066734 47.3827 0.0800795 47.4428 0.0934244C47.5028 0.106769 47.5562 0.120115 47.6162 0.13346C47.6696 0.146805 47.7097 0.166821 47.7363 0.186838C47.7697 0.206856 47.7764 0.226873 47.7764 0.24689V0.440392C47.7764 0.440392 47.7764 0.453736 47.7764 0.460408C47.7764 0.460408 47.7764 0.467081 47.7697 0.473753V0.487099C47.7697 0.487099 47.7697 0.487099 47.763 0.500444C47.763 0.500444 47.763 0.500444 47.7497 0.513789C47.7497 0.513789 47.7363 0.527133 47.723 0.533806C47.7097 0.533806 47.703 0.533806 47.6963 0.533806H47.6696C47.6696 0.533806 47.6496 0.533806 47.6429 0.533806C47.6429 0.533806 47.6363 0.533806 47.6296 0.533806C47.6296 0.533806 47.6229 0.533806 47.6162 0.533806C47.6162 0.533806 47.6096 0.533806 47.6029 0.533806C47.5562 0.513788 47.5095 0.500444 47.4694 0.487099C47.4227 0.473754 47.376 0.460409 47.3293 0.453737C47.3093 0.453737 47.2826 0.447064 47.2626 0.440392C47.2359 0.440392 47.2159 0.440391 47.1959 0.427047C47.1692 0.427047 47.1425 0.427046 47.1225 0.413701C47.0958 0.413701 47.0758 0.413701 47.0558 0.400356H47.0157C47.0157 0.400356 46.989 0.400356 46.9824 0.400356H46.8689C46.8689 0.400356 46.8422 0.400356 46.8356 0.400356H46.7622C46.6487 0.400356 46.5353 0.400358 46.4285 0.420375C46.3218 0.43372 46.215 0.453738 46.1149 0.480427C46.0149 0.507117 45.9148 0.540479 45.8214 0.587186C45.7279 0.633893 45.6345 0.687273 45.5478 0.753997C45.4477 0.834067 45.361 0.920807 45.2809 1.02089C45.2008 1.11431 45.1341 1.22107 45.0807 1.32783C45.0273 1.44126 44.9806 1.54802 44.9473 1.66145C44.9139 1.77488 44.9006 1.88831 44.8872 2.00842C44.8872 2.02176 44.8872 2.02843 44.8872 2.04178V2.14186C44.8872 2.33537 44.9206 2.51552 44.9873 2.68233C45.0607 2.84247 45.1608 2.98927 45.2942 3.12271C45.4343 3.24949 45.5945 3.34958 45.788 3.4163C45.9748 3.47635 46.1883 3.50971 46.4285 3.50971H46.5753C46.5753 3.50971 46.602 3.50971 46.6087 3.50971C46.6154 3.50971 46.6287 3.50971 46.6421 3.50971C46.6554 3.50971 46.6621 3.50971 46.6754 3.50971H46.7155C46.7155 3.50971 46.7421 3.50971 46.7622 3.50971C46.7755 3.50971 46.7889 3.50971 46.8022 3.50971C46.8155 3.50971 46.8289 3.50971 46.8422 3.50971C46.8689 3.50304 46.8956 3.49637 46.9223 3.4897C46.949 3.4897 46.9757 3.47635 47.0024 3.46968V3.45634L47.0891 2.06847L47.0624 2.01509Z" fill="var(--fill-0, #1ECAD3)"/>
<path id="Vector_14" d="M49.2338 3.63642C49.2338 3.63642 49.2204 3.68312 49.2138 3.69647C49.2138 3.70981 49.2004 3.72316 49.1871 3.72983C49.1737 3.7365 49.1604 3.74317 49.1404 3.74317C49.1204 3.74317 49.107 3.74317 49.0803 3.74317H48.8201C48.8201 3.74317 48.7801 3.74317 48.76 3.74317C48.74 3.74317 48.7267 3.7365 48.72 3.72316C48.7133 3.71649 48.7067 3.70314 48.7 3.68979C48.7 3.67645 48.7 3.66311 48.7 3.64976L48.9135 0.193435C48.9135 0.193435 48.9135 0.160072 48.9269 0.153399C48.9269 0.140054 48.9402 0.12671 48.9536 0.120037C48.9669 0.113365 48.9869 0.106693 49.0003 0.100021C49.0203 0.100021 49.0336 0.093347 49.0603 0.093347L49.454 0.0800018C49.4873 0.0800018 49.514 0.0933484 49.5407 0.100021C49.5607 0.106693 49.5808 0.120038 49.6008 0.133383C49.6208 0.146727 49.6341 0.166743 49.6475 0.186761C49.6608 0.206778 49.6742 0.226796 49.6875 0.246813C49.7075 0.280175 49.7276 0.32021 49.7542 0.353572C49.7743 0.386934 49.7943 0.420297 49.821 0.45366C49.841 0.487022 49.8677 0.520385 49.8877 0.553747C49.9144 0.587109 49.9344 0.62047 49.9611 0.653832C49.9678 0.667177 49.9811 0.673849 49.9878 0.687194C49.9878 0.700539 50.0011 0.707213 50.0011 0.720558C50.0078 0.733903 50.0211 0.740575 50.0278 0.75392C50.0412 0.767265 50.0478 0.773937 50.0545 0.787282L51.2088 2.54881C51.2088 2.54881 51.2355 2.60219 51.2489 2.62888C51.2689 2.65556 51.2822 2.67558 51.2889 2.70227C51.3089 2.72896 51.3223 2.75565 51.3356 2.78234C51.349 2.80903 51.3623 2.83572 51.3756 2.86241C51.4023 2.91579 51.4224 2.9625 51.4424 3.02255C51.4624 3.07593 51.4824 3.12931 51.4957 3.18269L51.6826 0.20678C51.6826 0.20678 51.6826 0.173417 51.6893 0.166744C51.6893 0.153399 51.7093 0.140055 51.7226 0.133383C51.736 0.12671 51.7493 0.120039 51.7693 0.113366C51.7893 0.113366 51.8094 0.106692 51.8294 0.106692L52.0896 0.093347C52.0896 0.093347 52.1296 0.106694 52.1497 0.113366C52.1697 0.113366 52.183 0.12671 52.1897 0.133383C52.1964 0.146727 52.2097 0.160071 52.2164 0.173416C52.2164 0.186761 52.223 0.20678 52.223 0.220125L52.0029 3.65643C52.0029 3.65643 51.9962 3.70314 51.9895 3.71648C51.9895 3.72983 51.9762 3.74317 51.9628 3.74985C51.9495 3.75652 51.9361 3.76319 51.9161 3.76319C51.8961 3.76319 51.8761 3.76319 51.8561 3.76319H51.4424C51.4424 3.76319 51.4023 3.76319 51.3823 3.76319C51.3623 3.76319 51.349 3.74985 51.3356 3.74317C51.3223 3.72983 51.3089 3.71649 51.2956 3.70981C51.2822 3.69647 51.2689 3.68312 51.2622 3.66978C51.2422 3.64309 51.2289 3.6164 51.2088 3.58971C51.1888 3.56302 51.1755 3.53633 51.1621 3.50964C51.1421 3.48295 51.1288 3.45626 51.1088 3.42957C51.0887 3.40288 51.0754 3.37619 51.0554 3.3495C51.022 3.29612 50.9886 3.24941 50.9553 3.19603C50.9219 3.14933 50.8819 3.09595 50.8485 3.04257L49.7009 1.28104C49.6675 1.24101 49.6408 1.1943 49.6141 1.14759C49.5808 1.10089 49.5607 1.04751 49.5274 1.0008C49.5007 0.94742 49.4807 0.900713 49.4607 0.847334C49.4406 0.793954 49.4206 0.747248 49.4073 0.693868V0.680523L49.2271 3.66311L49.2338 3.63642Z" fill="var(--fill-0, #1ECAD3)"/>
<path id="Vector_15" d="M58.2724 2.01509C58.2724 2.01509 58.2724 1.9884 58.2858 1.97505C58.2858 1.96171 58.2991 1.94836 58.3191 1.94169C58.3258 1.94169 58.3392 1.92835 58.3592 1.92168C58.3792 1.92168 58.3925 1.915 58.4192 1.915L58.7662 1.90166C58.7662 1.90166 58.8062 1.915 58.8262 1.92168C58.8463 1.92168 58.8596 1.93502 58.8663 1.94169C58.8729 1.95504 58.8796 1.96838 58.8863 1.98173C58.8863 1.99507 58.8863 2.01509 58.8863 2.02843L58.7862 3.52973C58.7862 3.56977 58.7662 3.6098 58.7328 3.63649C58.6995 3.66986 58.6461 3.68987 58.5727 3.70989C58.4993 3.73658 58.4326 3.74992 58.3525 3.7566C58.2791 3.76994 58.199 3.78329 58.119 3.78996C58.0723 3.78996 58.0255 3.8033 57.9788 3.8033C57.9321 3.8033 57.8854 3.8033 57.8387 3.80998C57.792 3.80998 57.752 3.80998 57.7119 3.81665C57.6719 3.81665 57.6385 3.81665 57.5985 3.81665C57.2782 3.81665 56.9913 3.78329 56.7378 3.70989C56.4775 3.64317 56.2507 3.53641 56.0572 3.38294C55.8637 3.24282 55.7102 3.06266 55.6168 2.84914C55.5167 2.63563 55.47 2.39542 55.47 2.11518C55.47 1.81492 55.5301 1.53467 55.6435 1.28112C55.7569 1.02757 55.9304 0.800704 56.1573 0.607203C56.3908 0.413702 56.651 0.266907 56.9513 0.173493C57.2449 0.0734063 57.5785 0.026701 57.9455 0.026701C57.9522 0.026701 57.9788 0.026701 58.0055 0.026701C58.0389 0.026701 58.0789 0.0266999 58.1323 0.0333723C58.1857 0.0333723 58.2391 0.0333726 58.2924 0.0467175C58.3525 0.0467175 58.4059 0.0533891 58.4659 0.066734C58.5327 0.066734 58.5927 0.0800795 58.6528 0.0934244C58.7128 0.106769 58.7662 0.120115 58.8262 0.13346C58.8796 0.146805 58.9197 0.166821 58.9463 0.186838C58.9797 0.206856 58.9864 0.226873 58.9864 0.24689V0.440392C58.9864 0.440392 58.9864 0.453736 58.9864 0.460408C58.9864 0.460408 58.9864 0.467081 58.9797 0.473753V0.487099C58.9797 0.487099 58.9797 0.487099 58.973 0.500444C58.973 0.500444 58.973 0.500444 58.9597 0.513789C58.9597 0.513789 58.9463 0.527133 58.933 0.533806C58.9197 0.533806 58.913 0.533806 58.9063 0.533806H58.8796C58.8796 0.533806 58.8596 0.533806 58.8529 0.533806C58.8529 0.533806 58.8463 0.533806 58.8396 0.533806C58.8396 0.533806 58.8329 0.533806 58.8262 0.533806C58.8262 0.533806 58.8196 0.533806 58.8129 0.533806C58.7662 0.513788 58.7195 0.500444 58.6794 0.487099C58.6327 0.473754 58.586 0.460409 58.5393 0.453737C58.5193 0.453737 58.4926 0.447064 58.4726 0.440392C58.4459 0.440392 58.4259 0.440391 58.4059 0.427047C58.3792 0.427047 58.3525 0.427046 58.3325 0.413701C58.3058 0.413701 58.2858 0.413701 58.2658 0.400356H58.2257C58.2257 0.400356 58.199 0.400356 58.1924 0.400356H58.0789C58.0789 0.400356 58.0522 0.400356 58.0456 0.400356H57.9722C57.8587 0.400356 57.7453 0.400358 57.6385 0.420375C57.5318 0.43372 57.425 0.453738 57.3249 0.480427C57.2249 0.507117 57.1248 0.540479 57.0314 0.587186C56.9379 0.633893 56.8445 0.687273 56.7578 0.753997C56.6577 0.834067 56.5643 0.920807 56.4909 1.02089C56.4108 1.11431 56.3441 1.22107 56.2907 1.32783C56.2373 1.44126 56.1906 1.54802 56.1573 1.66145C56.1239 1.77488 56.1106 1.88831 56.0972 2.00842C56.0972 2.02176 56.0905 2.02843 56.0905 2.04178V2.14186C56.0905 2.33537 56.1239 2.51552 56.1973 2.68233C56.2707 2.84247 56.3708 2.98927 56.5042 3.12271C56.6444 3.24949 56.8045 3.34958 56.9913 3.4163C57.1781 3.47635 57.3917 3.50971 57.6319 3.50971H57.7787C57.7787 3.50971 57.8054 3.50971 57.812 3.50971C57.8187 3.50971 57.832 3.50971 57.8454 3.50971C57.8587 3.50971 57.8654 3.50971 57.8788 3.50971H57.9188C57.9188 3.50971 57.9455 3.50971 57.9655 3.50971C57.9788 3.50971 57.9922 3.50971 58.0055 3.50971C58.0189 3.50971 58.0322 3.50971 58.0456 3.50971C58.0723 3.50304 58.0989 3.49637 58.1256 3.4897C58.1523 3.4897 58.179 3.47635 58.2057 3.46968V3.45634L58.2924 2.06847L58.2724 2.01509Z" fill="var(--fill-0, #1ECAD3)"/>
<path id="Vector_16" d="M60.5805 3.62981C60.5805 3.62981 60.5805 3.67652 60.5738 3.68986C60.5738 3.70321 60.5538 3.71656 60.5405 3.72323C60.5271 3.73657 60.5138 3.74324 60.4938 3.74324C60.4738 3.74324 60.4604 3.74324 60.4337 3.74324H60.1068C60.1068 3.74324 60.0667 3.74324 60.0467 3.74324C60.0267 3.74324 60.0134 3.73657 60.0067 3.72323C59.9933 3.71656 59.9867 3.70321 59.98 3.68986C59.98 3.67652 59.98 3.6565 59.98 3.64316L60.1935 0.186831C60.1935 0.186831 60.1935 0.160143 60.2069 0.146798C60.2135 0.133453 60.2269 0.126781 60.2402 0.113436C60.2536 0.106764 60.2669 0.100089 60.2869 0.093417C60.3069 0.093417 60.3203 0.0867457 60.347 0.0867457L61.468 0.0734005C61.6348 0.0734005 61.7882 0.10009 61.935 0.133453C62.0818 0.166815 62.2219 0.213523 62.3554 0.280247C62.4822 0.346972 62.5823 0.433712 62.649 0.547143C62.7157 0.660575 62.7491 0.794024 62.7491 0.954163C62.7491 1.09428 62.7157 1.22106 62.6556 1.33449C62.5956 1.44792 62.5089 1.55468 62.3888 1.6481C62.2686 1.74151 62.1419 1.81491 62.0084 1.86829C61.8683 1.92167 61.7215 1.95503 61.5547 1.9617L62.0218 2.52886C62.0952 2.62227 62.1619 2.71569 62.2353 2.8091C62.3087 2.90252 62.3821 2.98926 62.4555 3.076C62.5289 3.16941 62.6089 3.25615 62.6823 3.3429C62.7624 3.42964 62.8425 3.51638 62.9225 3.59645V3.6098C62.9225 3.6098 62.9225 3.6098 62.9292 3.6098C62.9292 3.6098 62.9359 3.6098 62.9426 3.61647C62.9426 3.61647 62.9426 3.61647 62.9492 3.62314C62.9492 3.62314 62.9492 3.62314 62.9492 3.62981C62.9492 3.62981 62.9492 3.62981 62.9626 3.63649C62.9626 3.63649 62.9626 3.64316 62.9626 3.64983C62.9626 3.64983 62.9626 3.6565 62.9626 3.66318V3.67652C62.9626 3.67652 62.9626 3.69654 62.9626 3.70321C62.9626 3.70988 62.9492 3.71655 62.9426 3.7299C62.9359 3.7299 62.9225 3.7299 62.9159 3.73657C62.9025 3.73657 62.8892 3.73657 62.8825 3.73657H62.3087C62.3087 3.73657 62.2887 3.73657 62.282 3.73657C62.2686 3.73657 62.2553 3.72323 62.2486 3.71655C62.2486 3.71655 62.2353 3.70321 62.2219 3.69654L60.8875 1.98172H60.6739L60.5672 3.62314L60.5805 3.62981ZM61.2478 1.64142C61.2478 1.64142 61.2611 1.64142 61.2745 1.64142H61.2878C61.3879 1.64142 61.488 1.62808 61.5814 1.60139C61.6748 1.5747 61.7682 1.54134 61.8483 1.48796C61.935 1.43458 62.0017 1.37453 62.0485 1.29446C62.0952 1.21439 62.1152 1.12765 62.1152 1.02756C62.1152 0.927473 62.1018 0.840732 62.0685 0.767335C62.0351 0.693938 61.9884 0.633886 61.9284 0.587179C61.8616 0.533799 61.7816 0.500436 61.6948 0.473746C61.6014 0.447056 61.5013 0.440384 61.3879 0.440384L60.7807 0.427039L60.7006 1.63475H61.2411L61.2478 1.64142Z" fill="var(--fill-0, #1ECAD3)"/>
<path id="Vector_17" d="M63.7167 1.915V1.90166V1.86162C63.7167 1.86162 63.7167 1.82826 63.7167 1.82159C63.7167 1.80824 63.7167 1.7949 63.73 1.78155C63.7634 1.56136 63.8301 1.34785 63.9302 1.14767C64.0303 0.947498 64.1637 0.753996 64.3372 0.567167C64.504 0.387011 64.7042 0.246892 64.9377 0.16015C65.1646 0.0667361 65.4315 0.026701 65.7251 0.026701C66.0187 0.026701 66.2789 0.0667347 66.5057 0.153476C66.7326 0.240218 66.9194 0.360323 67.0662 0.527134C67.2197 0.693945 67.3331 0.880772 67.4132 1.08095C67.4933 1.28112 67.5266 1.50131 67.5266 1.72817V1.80157C67.5266 1.80157 67.5266 1.82826 67.5266 1.8416V1.87497C67.5266 1.87497 67.5266 1.92168 67.5266 1.94837C67.5266 1.97506 67.5266 1.99507 67.52 2.01509C67.4866 2.24862 67.4265 2.46881 67.3265 2.67566C67.2264 2.88251 67.0929 3.08935 66.9194 3.27618C66.746 3.46968 66.5458 3.6098 66.3056 3.70322C66.072 3.79663 65.7985 3.84334 65.4982 3.84334C65.198 3.84334 64.9377 3.8033 64.7175 3.71656C64.4907 3.62982 64.3038 3.50304 64.1571 3.32956C64.0103 3.15608 63.8968 2.96925 63.8234 2.76908C63.75 2.56223 63.71 2.34871 63.71 2.11518V1.97505C63.71 1.97505 63.71 1.97505 63.71 1.96171V1.915H63.7167ZM64.3305 1.94837V1.96171C64.3305 1.96171 64.3239 1.96171 64.3239 1.97505V2.1819C64.3239 2.1819 64.3239 2.20859 64.3239 2.22194C64.3239 2.23528 64.3239 2.24862 64.3239 2.2553V2.28866C64.3239 2.28866 64.3239 2.30868 64.3239 2.32202C64.3239 2.33537 64.3239 2.34871 64.3239 2.36206C64.3239 2.3754 64.3239 2.38875 64.3239 2.39542C64.3439 2.52887 64.3839 2.66232 64.444 2.78909C64.4973 2.91587 64.5774 3.03597 64.6708 3.15608C64.7642 3.26951 64.8777 3.35625 65.0245 3.4163C65.1646 3.47635 65.3314 3.50304 65.5182 3.50304C65.7051 3.50304 65.8852 3.46968 66.0387 3.40963C66.1921 3.34291 66.3189 3.24949 66.4257 3.12939C66.5258 3.00261 66.6125 2.87583 66.6792 2.73571C66.746 2.59559 66.806 2.45547 66.8394 2.302C66.8394 2.27531 66.846 2.2553 66.8527 2.22861C66.8527 2.20192 66.8594 2.1819 66.8661 2.15521C66.8661 2.13519 66.8727 2.1085 66.8794 2.08849C66.8794 2.0618 66.8794 2.04178 66.8861 2.01509C66.8994 1.96171 66.8994 1.915 66.9061 1.86829C66.9061 1.82159 66.9061 1.77488 66.9061 1.73484V1.66812C66.9061 1.66812 66.9061 1.6481 66.9061 1.63476V1.6014C66.9061 1.6014 66.8994 1.56136 66.8928 1.53467C66.8928 1.51465 66.8928 1.49464 66.8928 1.46795C66.8727 1.32783 66.8327 1.20105 66.7726 1.07427C66.7193 0.947498 66.6392 0.827393 66.5525 0.713962C66.459 0.60053 66.3456 0.513788 66.2055 0.460408C66.0654 0.400356 65.9052 0.373668 65.7184 0.373668C65.5316 0.373668 65.3581 0.40703 65.2113 0.467082C65.0645 0.527134 64.9377 0.620547 64.831 0.733978C64.7242 0.84741 64.6375 0.974187 64.5641 1.10764C64.4907 1.23441 64.4373 1.37453 64.3973 1.51466C64.3839 1.54802 64.3706 1.58805 64.3639 1.62141C64.3639 1.65478 64.3506 1.69481 64.3439 1.73484C64.3439 1.76821 64.3305 1.80824 64.3239 1.8416C64.3239 1.87497 64.3172 1.915 64.3172 1.94837V1.93502V1.95504L64.3305 1.94837Z" fill="var(--fill-0, #1ECAD3)"/>
<path id="Vector_18" d="M69.3039 0.0733918C69.3039 0.0733918 69.3439 0.0867359 69.3573 0.0934083C69.3706 0.0934083 69.3839 0.106754 69.3906 0.120099C69.3973 0.133444 69.404 0.146788 69.4106 0.15346C69.4106 0.166805 69.4106 0.180151 69.4106 0.193496L69.2705 2.45545V2.48882C69.2705 2.48882 69.2705 2.49549 69.2705 2.50216V2.64896C69.2705 2.7824 69.2905 2.90918 69.3372 3.00927C69.3839 3.11602 69.444 3.20944 69.5307 3.28284C69.6175 3.35624 69.7242 3.40961 69.851 3.44298C69.9778 3.48301 70.1246 3.49636 70.2914 3.49636C70.5049 3.49636 70.6851 3.46966 70.8319 3.41629C70.9787 3.36291 71.0921 3.28284 71.1722 3.17608C71.2522 3.06932 71.3123 2.94922 71.3523 2.81577C71.399 2.68899 71.4257 2.5422 71.4324 2.38206L71.5725 0.173477C71.5725 0.173477 71.5725 0.146789 71.5859 0.133444C71.5859 0.120099 71.5992 0.106755 71.6192 0.100082C71.6326 0.0934098 71.6459 0.0867356 71.6659 0.0800631C71.6859 0.0800631 71.6993 0.0733918 71.726 0.0733918L71.9862 0.0600466C71.9862 0.0600466 72.0262 0.0733907 72.0396 0.0800631C72.0529 0.0800631 72.0663 0.0934098 72.0796 0.100082C72.093 0.113427 72.0996 0.120099 72.1063 0.133444C72.1063 0.146789 72.1197 0.166806 72.1197 0.180151L71.9795 2.38873C71.9662 2.62227 71.9195 2.82244 71.8327 3.00259C71.746 3.17608 71.6259 3.32954 71.4724 3.45632C71.3123 3.5831 71.1255 3.67651 70.9186 3.73656C70.7051 3.79661 70.4582 3.82998 70.1846 3.82998C69.9578 3.82998 69.7509 3.80329 69.5708 3.75658C69.3906 3.70987 69.2238 3.6298 69.0837 3.52972C68.9502 3.42963 68.8435 3.30285 68.7768 3.15606C68.71 3.00927 68.67 2.83578 68.67 2.64228V2.51551C68.67 2.51551 68.67 2.51551 68.67 2.50216V2.48214L68.8101 0.160134C68.8101 0.160134 68.8101 0.133444 68.8168 0.120099C68.8168 0.106754 68.8368 0.100082 68.8502 0.086737C68.8568 0.0800646 68.8702 0.0733904 68.8902 0.0667179C68.9102 0.0667179 68.9302 0.0600466 68.9502 0.0600466V0.0467014H69.3039V0.0733918Z" fill="var(--fill-0, #1ECAD3)"/>
<path id="Vector_19" d="M73.9005 3.63649C73.9005 3.63649 73.8872 3.68319 73.8805 3.69654C73.8805 3.70988 73.8605 3.72323 73.8472 3.7299C73.8338 3.73657 73.8205 3.74324 73.8004 3.74324C73.7804 3.74324 73.7671 3.74324 73.7404 3.74324H73.4134C73.4134 3.74324 73.3734 3.74324 73.3534 3.74324C73.3334 3.74324 73.32 3.73657 73.3134 3.72323C73.3 3.71656 73.2933 3.70321 73.2867 3.68986C73.2867 3.67652 73.28 3.66318 73.28 3.64983L73.4935 0.186831C73.4935 0.186831 73.4935 0.160143 73.5069 0.146798C73.5135 0.133453 73.5269 0.120109 73.5402 0.113436C73.5536 0.106764 73.5669 0.100089 73.5869 0.093417C73.6069 0.093417 73.6203 0.0867457 73.647 0.0867457L74.788 0.0734005C74.9815 0.0734005 75.1616 0.106763 75.3284 0.146798C75.4952 0.186832 75.6554 0.246884 75.8022 0.333625C75.949 0.413695 76.0557 0.520455 76.1291 0.647231C76.2025 0.774007 76.2359 0.934147 76.2359 1.1143C76.2359 1.29446 76.1959 1.46127 76.1225 1.61474C76.0491 1.7682 75.9356 1.90165 75.7822 2.02175C75.6287 2.14186 75.4686 2.23527 75.2817 2.29532C75.1016 2.35537 74.9014 2.38874 74.6812 2.38874L74.3676 2.37539H74.3409C74.3409 2.37539 74.3076 2.37539 74.3009 2.36872C74.2875 2.36872 74.2809 2.35538 74.2675 2.3487C74.2608 2.33536 74.2542 2.32201 74.2475 2.30867C74.2475 2.29532 74.2475 2.27531 74.2475 2.26196V2.20191V2.16188C74.2475 2.16188 74.2475 2.12184 74.2475 2.10182C74.2475 2.08181 74.2608 2.06846 74.2675 2.04844C74.2742 2.02843 74.2942 2.01508 74.3142 2.00841C74.3342 2.00174 74.3609 1.99507 74.3943 1.99507C74.5611 1.99507 74.7146 1.98172 74.8547 1.95503C74.9948 1.92834 75.1216 1.89498 75.235 1.84827C75.3485 1.79489 75.4352 1.72149 75.5019 1.62141C75.562 1.52132 75.602 1.39454 75.622 1.2344C75.622 1.10763 75.602 1.00087 75.562 0.900782C75.5219 0.800695 75.4619 0.720627 75.3818 0.653902C75.3017 0.580506 75.2083 0.527127 75.0949 0.493765C74.9815 0.460403 74.848 0.440384 74.6946 0.440384L74.0874 0.427039L73.8939 3.64316L73.9005 3.63649Z" fill="var(--fill-0, #1ECAD3)"/>
</g>
</svg>
