<svg preserveAspectRatio="none" width="100%" height="100%" overflow="visible" style="display: block;" viewBox="0 0 22 8" fill="none" xmlns="http://www.w3.org/2000/svg">
<g id="Frame 1707489628">
<path id="&#226;&#128;&#156;" d="M0.5 8C0.223857 8 0 7.77614 0 7.5V4.71642C0 2.54788 1.28666 0.757975 3.43203 0.1359C3.73122 0.0491446 4.01439 0.286293 4.01439 0.597813V1.28181C4.01439 1.51099 3.85696 1.70707 3.64154 1.78527C2.60833 2.16032 2.00838 2.92626 1.87421 4.03812C1.84113 4.31227 2.06918 4.53731 2.34532 4.53731H3.19065C3.46679 4.53731 3.69065 4.76117 3.69065 5.03731V7.5C3.69065 7.77614 3.46679 8 3.19065 8H0.5ZM5.48561 8C5.20947 8 4.98561 7.77614 4.98561 7.5V4.71642C4.98561 2.54788 6.27227 0.757975 8.41764 0.1359C8.71684 0.0491446 9 0.286293 9 0.597813V1.28181C9 1.51099 8.84257 1.70707 8.62715 1.78527C7.59394 2.16032 6.99399 2.92626 6.85982 4.03812C6.82674 4.31227 7.05479 4.53731 7.33093 4.53731H8.17626C8.4524 4.53731 8.67626 4.76117 8.67626 5.03731V7.5C8.67626 7.77614 8.4524 8 8.17626 8H5.48561Z" fill="var(--fill-0, #1B1F2A)"/>
<path id="&#226;&#128;&#156;_2" d="M21.5 0C21.7761 -2.41411e-08 22 0.223858 22 0.5L22 3.28358C22 5.45212 20.7133 7.24203 18.568 7.8641C18.2688 7.95086 17.9856 7.71371 17.9856 7.40219L17.9856 6.71819C17.9856 6.48901 18.143 6.29293 18.3585 6.21473C19.3917 5.83968 19.9916 5.07374 20.1258 3.96188C20.1589 3.68773 19.9308 3.46269 19.6547 3.46269L18.8094 3.46269C18.5332 3.46269 18.3094 3.23883 18.3094 2.96269L18.3094 0.500001C18.3094 0.223858 18.5332 2.59365e-07 18.8094 2.35224e-07L21.5 0ZM16.5144 4.35856e-07C16.7905 4.11715e-07 17.0144 0.223858 17.0144 0.5L17.0144 3.28358C17.0144 5.45212 15.7277 7.24203 13.5824 7.8641C13.2832 7.95086 13 7.71371 13 7.40219L13 6.71819C13 6.48901 13.1574 6.29293 13.3728 6.21473C14.4061 5.83968 15.006 5.07374 15.1402 3.96188C15.1733 3.68773 14.9452 3.46269 14.6691 3.46269L13.8237 3.46269C13.5476 3.46269 13.3237 3.23883 13.3237 2.96269L13.3237 0.500001C13.3237 0.223859 13.5476 6.95221e-07 13.8237 6.7108e-07L16.5144 4.35856e-07Z" fill="var(--fill-0, #1B1F2A)"/>
</g>
</svg>
