<svg preserveAspectRatio="none" width="100%" height="100%" overflow="visible" style="display: block;" viewBox="0 0 24 24" fill="none" xmlns="http://www.w3.org/2000/svg">
<g id="Group 1272629334">
<path id="Rectangle 12644" d="M0.388676 23.7409C0.222538 23.8516 1.44345e-06 23.7325 1.43118e-06 23.5329L0 0.250002C-8.48713e-09 0.111931 0.111929 1.42562e-06 0.25 1.41958e-06L23.75 3.92366e-07C23.8881 3.86331e-07 24 0.111929 24 0.25L24 23.5329C24 23.7325 23.7775 23.8516 23.6113 23.7409L21.1387 22.0924C21.0547 22.0365 20.9453 22.0365 20.8613 22.0924L18.1387 23.9075C18.0547 23.9635 17.9453 23.9635 17.8613 23.9075L15.1387 22.0924C15.0547 22.0365 14.9453 22.0365 14.8613 22.0924L12.1387 23.9075C12.0547 23.9635 11.9453 23.9635 11.8613 23.9075L9.13868 22.0924C9.0547 22.0365 8.9453 22.0365 8.86133 22.0924L6.13868 23.9075C6.0547 23.9635 5.9453 23.9635 5.86133 23.9075L3.13868 22.0924C3.0547 22.0365 2.9453 22.0365 2.86133 22.0925L0.388676 23.7409Z" fill="var(--fill-0, #0360EF)"/>
<path id="Union" d="M16.7859 7.43428L16.6931 7.53487L11.2741 13.4245H17.1433V16.2858H6.85716V13.9753L6.94993 13.8747L12.3337 8.02119H7.23118V5.14229H16.7859V7.43428Z" fill="var(--fill-0, #F8FAFF)"/>
</g>
</svg>
