<svg preserveAspectRatio="none" width="100%" height="100%" overflow="visible" style="display: block;" viewBox="0 0 136.435 19.125" fill="none" xmlns="http://www.w3.org/2000/svg">
<g id="Group 1272629356">
<g id="Sourcing">
<path id="Vector" d="M131.65 19.125C128.974 19.125 127.216 17.9336 127.021 15.9609H129.15C129.345 16.957 130.283 17.4453 131.669 17.4453C133.33 17.4453 134.384 16.7422 134.384 15.082V12.9922H134.248C133.876 13.6758 133.115 14.7695 131.162 14.7695C128.662 14.7695 126.728 12.8945 126.728 9.51562C126.728 6.13672 128.623 4.18359 131.181 4.18359C133.154 4.18359 133.876 5.375 134.267 6.03906H134.404V4.32031H136.435V15.1602C136.435 17.875 134.384 19.125 131.65 19.125ZM131.63 13.0508C133.408 13.0508 134.404 11.7422 134.404 9.55469C134.404 7.40625 133.427 5.96094 131.63 5.96094C129.775 5.96094 128.857 7.52344 128.857 9.55469C128.857 11.625 129.814 13.0508 131.63 13.0508Z" fill="var(--fill-0, #262C3A)"/>
<path id="Vector_2" d="M118.181 8.63672V14.9258H116.091V4.32031H118.103V6.05859H118.22C118.728 4.92578 119.763 4.18359 121.345 4.18359C123.532 4.18359 124.958 5.55078 124.958 8.1875V14.9258H122.888V8.44141C122.888 6.89844 122.048 5.98047 120.642 5.98047C119.216 5.98047 118.181 6.9375 118.181 8.63672Z" fill="var(--fill-0, #262C3A)"/>
<path id="Vector_3" d="M111.762 14.9258V4.32031H113.852V14.9258H111.762ZM112.816 2.67969C112.094 2.67969 111.488 2.13281 111.488 1.44922C111.488 0.765625 112.094 0.21875 112.816 0.21875C113.52 0.21875 114.125 0.765625 114.125 1.44922C114.125 2.13281 113.52 2.67969 112.816 2.67969Z" fill="var(--fill-0, #262C3A)"/>
<path id="Vector_4" d="M105.733 15.1406C102.647 15.1406 100.772 12.8555 100.772 9.67188C100.772 6.42969 102.706 4.18359 105.694 4.18359C108.116 4.18359 109.874 5.60938 110.089 7.75781H108.058C107.843 6.76172 107.042 5.92188 105.733 5.92188C104.015 5.92188 102.862 7.34766 102.862 9.61328C102.862 11.9375 103.995 13.3633 105.733 13.3633C106.905 13.3633 107.804 12.7188 108.058 11.5664H110.089C109.854 13.6172 108.233 15.1406 105.733 15.1406Z" fill="var(--fill-0, #262C3A)"/>
<path id="Vector_5" d="M94.6079 14.9258V4.32031H96.6196V6H96.7368C97.1274 4.86719 98.1821 4.16406 99.4321 4.16406C99.686 4.16406 100.096 4.18359 100.311 4.20312V6.19531C100.135 6.15625 99.647 6.07812 99.2173 6.07812C97.772 6.07812 96.6978 7.07422 96.6978 8.46094V14.9258H94.6079Z" fill="var(--fill-0, #262C3A)"/>
<path id="Vector_6" d="M90.2983 10.5117V4.32031H92.3687V14.9258H90.3374V13.0898H90.2202C89.7319 14.2227 88.6382 15.0625 87.0562 15.0625C85.0054 15.0625 83.5601 13.6953 83.5601 11.0586V4.32031H85.6499V10.8047C85.6499 12.25 86.5288 13.168 87.7983 13.168C88.9507 13.168 90.2983 12.3281 90.2983 10.5117Z" fill="var(--fill-0, #262C3A)"/>
<path id="Vector_7" d="M76.8682 15.1406C73.8604 15.1406 71.9072 12.9531 71.9072 9.67188C71.9072 6.37109 73.8604 4.18359 76.8682 4.18359C79.8564 4.18359 81.8096 6.37109 81.8096 9.67188C81.8096 12.9531 79.8564 15.1406 76.8682 15.1406ZM76.8682 13.4023C78.7822 13.4023 79.7002 11.7031 79.7002 9.67188C79.7002 7.64062 78.7822 5.90234 76.8682 5.90234C74.915 5.90234 73.9971 7.64062 73.9971 9.67188C73.9971 11.7031 74.915 13.4023 76.8682 13.4023Z" fill="var(--fill-0, #262C3A)"/>
<path id="Vector_8" d="M68.2617 4.51562C68.125 3.20703 66.9727 2.44531 65.3516 2.44531C63.6133 2.44531 62.5195 3.32422 62.5195 4.53516C62.5195 5.88281 63.9844 6.39062 65.0977 6.66406L66.4648 7.03516C68.2812 7.46484 70.5273 8.46094 70.5469 11.0195C70.5273 13.4023 68.6328 15.1602 65.293 15.1602C62.1289 15.1602 60.1367 13.5781 60 11H62.1484C62.2852 12.543 63.6328 13.2852 65.293 13.2852C67.0898 13.2852 68.3984 12.3672 68.418 10.9805C68.3984 9.75 67.2461 9.24219 65.7422 8.85156L64.0625 8.40234C61.7969 7.77734 60.3711 6.625 60.3711 4.65234C60.3711 2.21094 62.5586 0.589844 65.4102 0.589844C68.2812 0.589844 70.293 2.23047 70.3516 4.51562H68.2617Z" fill="var(--fill-0, #262C3A)"/>
</g>
<path id="Vector_9" d="M21.846 11.6125C21.9914 11.6583 22.1368 11.6899 22.2838 11.7073C22.4292 11.7168 22.5746 11.7215 22.7216 11.7215C23.0866 11.7215 23.4375 11.6709 23.7741 11.5714C24.1107 11.4718 24.4252 11.3296 24.716 11.1478C25.0162 10.9566 25.2802 10.729 25.5093 10.4651C25.7464 10.1917 25.9376 9.89146 26.083 9.56274L28.8154 12.3094C28.4693 12.8009 28.0679 13.2434 27.6128 13.6353C27.1671 14.0273 26.6788 14.3591 26.1509 14.6325C25.6326 14.9059 25.081 15.1114 24.4979 15.2473C23.9242 15.3927 23.3316 15.4654 22.7216 15.4654C21.6928 15.4654 20.7224 15.2742 19.8121 14.8917C18.9097 14.5093 18.118 13.9767 17.4353 13.294C16.7605 12.6113 16.2279 11.8005 15.8359 10.8618C15.444 9.91516 15.248 8.87687 15.248 7.74691C15.248 6.61696 15.444 5.53283 15.8359 4.57672C16.2279 3.6206 16.7605 2.80513 17.4353 2.13032C18.118 1.45709 18.9113 0.932411 19.8121 0.559447C20.7224 0.186482 21.6928 0 22.7216 0C23.3316 0 23.9289 0.072696 24.5121 0.218089C25.0953 0.363482 25.6468 0.57367 26.1652 0.847072C26.693 1.12047 27.1861 1.45709 27.6412 1.8585C28.0964 2.25043 28.4978 2.69135 28.8439 3.18442L21.8492 11.614L21.846 11.6125ZM23.7599 3.92087C23.586 3.85765 23.4138 3.81656 23.2399 3.7976C23.0756 3.77863 22.9033 3.77073 22.72 3.77073C22.2095 3.77073 21.7275 3.86714 21.2724 4.05836C20.8267 4.2401 20.4348 4.50402 20.0982 4.85012C19.7695 5.19622 19.5103 5.61501 19.319 6.1065C19.1278 6.58851 19.0314 7.13531 19.0314 7.74533C19.0314 7.88124 19.0362 8.03612 19.0457 8.20996C19.063 8.3838 19.0867 8.5608 19.1136 8.74254C19.15 8.91638 19.191 9.0839 19.2369 9.24825C19.2827 9.41261 19.3412 9.558 19.4139 9.68601L23.7583 3.92087H23.7599Z" fill="var(--fill-0, #262C3A)"/>
<path id="Vector_10" d="M37.2453 0.690286C37.2136 0.690286 37.1836 0.691866 37.152 0.691866V0.688705H36.0932C33.1237 0.688705 30.7168 3.09559 30.7168 6.06508V15.2944H34.4164V7.23297C34.4164 6.84104 34.4891 6.47281 34.6345 6.12672C34.7799 5.78062 34.9806 5.48035 35.235 5.22433C35.4895 4.96989 35.7913 4.76919 36.1374 4.6238C36.4835 4.4784 36.8517 4.40571 37.2437 4.40571H40.5371V0.688705H37.2437L37.2453 0.690286Z" fill="var(--fill-0, #262C3A)"/>
<path id="Vector_11" d="M56.9122 7.74849C56.9122 8.8421 56.7163 9.86143 56.3243 10.8096C55.9324 11.7484 55.3998 12.5638 54.7266 13.2545C54.0534 13.9372 53.26 14.4792 52.3497 14.8806C51.4474 15.2726 50.477 15.4685 49.4387 15.4685C48.4004 15.4685 47.4396 15.2726 46.5293 14.8806C45.6269 14.4792 44.8351 13.9388 44.1524 13.2545C43.4792 12.5623 42.945 11.7468 42.5547 10.8096C42.1628 9.86301 41.9668 8.8421 41.9668 7.74849C41.9668 6.65489 42.1628 5.60869 42.5547 4.66047C42.9466 3.71384 43.4792 2.89838 44.1524 2.21408C44.8351 1.52188 45.6285 0.979822 46.5293 0.587893C47.4396 0.195965 48.4099 0 49.4387 0C50.4675 0 51.4474 0.186482 52.3497 0.559447C53.26 0.924509 54.0534 1.44761 54.7266 2.13032C55.3998 2.80513 55.934 3.61902 56.3243 4.57671C56.7163 5.52335 56.9122 6.58061 56.9122 7.74691V7.74849ZM53.1557 7.74849C53.1557 7.14796 53.0562 6.60589 52.8555 6.1223C52.6642 5.63081 52.4003 5.21202 52.0637 4.86592C51.7271 4.51034 51.3304 4.24168 50.8753 4.05994C50.4296 3.86871 49.9508 3.77231 49.4403 3.77231C48.9299 3.77231 48.4478 3.86871 47.9927 4.05994C47.547 4.24168 47.1551 4.51034 46.8185 4.86592C46.4914 5.21202 46.2306 5.63081 46.0394 6.1223C45.8482 6.60431 45.7518 7.14638 45.7518 7.74849C45.7518 8.31268 45.8482 8.83736 46.0394 9.31937C46.2306 9.80138 46.4898 10.2218 46.8185 10.5758C47.1551 10.9313 47.547 11.2142 47.9927 11.4228C48.4478 11.6235 48.9314 11.7231 49.4403 11.7231C49.9492 11.7231 50.428 11.6283 50.8753 11.437C51.3304 11.2458 51.7271 10.9772 52.0637 10.6311C52.4003 10.285 52.6642 9.86617 52.8555 9.37468C53.0562 8.88319 53.1557 8.34113 53.1557 7.74849Z" fill="var(--fill-0, #262C3A)"/>
<path id="Union" d="M13.5732 3.32031L13.4473 3.45605L6.03906 11.3838H14.0625V15.2344H0V12.125L0.125977 11.9902L7.4873 4.11035H0.511719V0.234375H13.5732V3.32031Z" fill="var(--fill-0, #262C3A)"/>
</g>
</svg>
